<svg width="2000" height="1300" viewBox="0 0 2000 1300" fill="none" xmlns="http://www.w3.org/2000/svg">
<line y1="-1" x2="168.596" y2="-1" transform="matrix(-0.00145999 -0.999999 0.999999 -0.00139204 402.793 316.937)" stroke="black" stroke-width="2" stroke-dasharray="4 4"/>
<rect x="586.691" y="638.319" width="147.316" height="211.275" transform="rotate(-180 586.691 638.319)" fill="#C0C0C0"/>
<rect x="651.141" y="773.175" width="46.0361" height="152.837" transform="rotate(-180 651.141 773.175)" fill="#C0C0C0"/>
<rect x="1590.28" y="804.642" width="142.712" height="85.4089" transform="rotate(-180 1590.28 804.642)" fill="#C0C0C0"/>
<rect x="61.8802" y="76.4185" width="547.83" height="17.9808" fill="black"/>
<path d="M57.2766 768.68L57.2766 1168.75L38.8621 1168.75L38.8621 768.68L57.2766 768.68Z" fill="black"/>
<rect x="1212.78" y="669.785" width="31.4664" height="9.20722" transform="rotate(90 1212.78 669.785)" fill="#8C8C8C"/>
<rect x="1189.77" y="710.242" width="40.4568" height="13.8108" transform="rotate(90 1189.77 710.242)" fill="#8C8C8C"/>
<rect x="1295.65" y="669.785" width="31.4664" height="9.20722" transform="rotate(90 1295.65 669.785)" fill="#8C8C8C"/>
<rect x="365.719" y="301.179" width="31.4664" height="9.20722" transform="rotate(90 365.719 301.179)" fill="#8C8C8C"/>
<rect x="600.502" y="301.179" width="31.4664" height="9.20722" transform="rotate(90 600.502 301.179)" fill="#8C8C8C"/>
<rect x="310.475" y="301.179" width="31.4664" height="9.20722" transform="rotate(90 310.475 301.179)" fill="#8C8C8C"/>
<rect x="75.6911" y="76.4185" width="404.568" height="18.4144" transform="rotate(90 75.6911 76.4185)" fill="black"/>
<rect x="628.124" y="17.9808" width="404.568" height="18.4144" transform="rotate(90 628.124 17.9808)" fill="black"/>
<rect x="379.53" y="94.3993" width="53.9425" height="9.20722" transform="rotate(90 379.53 94.3993)" fill="black"/>
<rect x="448.584" y="94.3993" width="35.9616" height="59.847" transform="rotate(90 448.584 94.3993)" fill="black"/>
<rect x="402.548" y="130.361" width="17.9808" height="9.20723" transform="rotate(90 402.548 130.361)" fill="black"/>
<rect x="442.479" y="130.094" width="40.1768" height="6.82272" transform="rotate(-180 442.479 130.094)" fill="black"/>
<rect x="393.34" y="148.342" width="13.8108" height="53.9425" transform="rotate(-180 393.34 148.342)" fill="black"/>
<rect x="1461.38" y="89.9041" width="265.217" height="23.0181" transform="rotate(90 1461.38 89.9041)" fill="black"/>
<rect x="1429.15" y="22.476" width="71.9233" height="18.4144" transform="rotate(90 1429.15 22.476)" fill="black"/>
<rect x="1175.95" y="22.476" width="40.4568" height="18.4144" transform="rotate(90 1175.95 22.476)" fill="black"/>
<rect x="881.323" y="22.476" width="40.4568" height="18.4144" transform="rotate(90 881.323 22.476)" fill="black"/>
<rect x="1461.38" y="94.3993" width="32.2253" height="17.9808" transform="rotate(-180 1461.38 94.3993)" fill="black"/>
<rect x="1981.59" y="17.9808" width="76.4185" height="27.6217" transform="rotate(90 1981.59 17.9808)" fill="black"/>
<rect x="1447.57" y="418.054" width="404.568" height="18.4144" transform="rotate(90 1447.57 418.054)" fill="black"/>
<rect x="135.538" y="489.977" width="296.683" height="18.4144" transform="rotate(90 135.538 489.977)" fill="black"/>
<rect x="1917.14" y="480.987" width="301.179" height="18.4144" transform="rotate(90 1917.14 480.987)" fill="black"/>
<rect x="2000" y="8.99042" width="485.482" height="18.4144" transform="rotate(90 2000 8.99042)" fill="black"/>
<rect x="1898.72" y="476.492" width="87.4686" height="17.9808" fill="black"/>
<rect x="1953.96" width="46.0361" height="17.9808" fill="black"/>
<rect x="1898.72" y="768.68" width="96.6759" height="17.9808" fill="black"/>
<rect x="1461.38" y="76.4185" width="492.587" height="17.9807" fill="black"/>
<rect x="135.538" y="498.968" width="78.2614" height="17.9808" transform="rotate(-180 135.538 498.968)" fill="black"/>
<rect x="628.124" y="431.54" width="41.4325" height="17.9808" transform="rotate(-180 628.124 431.54)" fill="black"/>
<rect x="1461.38" y="364.112" width="32.2253" height="17.9808" transform="rotate(-180 1461.38 364.112)" fill="black"/>
<rect x="1447.57" y="669.785" width="119.694" height="17.9808" transform="rotate(-180 1447.57 669.785)" fill="black"/>
<rect x="1377.02" y="703.204" width="33.1895" height="6.82272" transform="rotate(-180 1377.02 703.204)" fill="black"/>
<rect x="1377.02" y="790.193" width="33.1895" height="6.82272" transform="rotate(-180 1377.02 790.193)" fill="black"/>
<rect x="1171.35" y="773.175" width="105.883" height="8.9904" transform="rotate(-180 1171.35 773.175)" fill="#8C8C8C"/>
<rect x="1604.09" y="822.622" width="165.73" height="17.9808" transform="rotate(-180 1604.09 822.622)" fill="black"/>
<rect x="1604.09" y="719.233" width="165.73" height="17.9808" transform="rotate(-180 1604.09 719.233)" fill="black"/>
<rect x="1429.15" y="35.9617" width="271.613" height="17.9808" transform="rotate(-180 1429.15 35.9617)" fill="black"/>
<rect x="1157.54" y="62.9328" width="276.217" height="17.9808" transform="rotate(-180 1157.54 62.9328)" fill="black"/>
<rect x="881.323" y="35.9617" width="271.613" height="17.9808" transform="rotate(-180 881.323 35.9617)" fill="black"/>
<rect x="1185.16" y="669.785" width="534.019" height="17.9808" transform="rotate(-180 1185.16 669.785)" fill="black"/>
<rect x="586.691" y="656.3" width="156.523" height="17.9808" transform="rotate(-180 586.691 656.3)" fill="black"/>
<rect x="664.953" y="786.661" width="78.2614" height="13.4856" transform="rotate(-180 664.953 786.661)" fill="black"/>
<rect x="664.952" y="620.338" width="78.2614" height="13.4856" transform="rotate(-180 664.952 620.338)" fill="black"/>
<rect x="1014.83" y="687.766" width="354.478" height="17.9808" transform="rotate(-180 1014.83 687.766)" fill="#8C8C8C"/>
<rect x="957.787" y="768.019" width="237.567" height="6.8227" transform="rotate(-180 957.787 768.019)" fill="black"/>
<rect x="957.787" y="768.019" width="237.567" height="39.2306" transform="rotate(-180 957.787 768.019)" fill="black"/>
<rect x="1033.24" y="773.175" width="18.4145" height="8.99041" transform="rotate(-180 1033.24 773.175)" fill="black"/>
<rect x="605.106" y="665.29" width="121.371" height="18.4144" transform="rotate(90 605.106 665.29)" fill="black"/>
<rect x="1019.43" y="665.29" width="107.885" height="18.4144" transform="rotate(90 1019.43 665.29)" fill="black"/>
<rect x="1185.16" y="665.29" width="107.885" height="13.8108" transform="rotate(90 1185.16 665.29)" fill="black"/>
<rect x="664.953" y="737.214" width="44.952" height="13.8108" transform="rotate(90 664.953 737.214)" fill="black"/>
<rect x="296.665" y="786.661" width="31.4664" height="9.20722" transform="rotate(90 296.665 786.661)" fill="black"/>
<rect x="402.546" y="1195.72" width="49.4473" height="18.4144" transform="rotate(90 402.546 1195.72)" fill="black"/>
<rect x="1024.03" y="1177.74" width="103.39" height="18.4144" transform="rotate(90 1024.03 1177.74)" fill="black"/>
<rect x="227.61" y="786.661" width="31.4664" height="9.20722" transform="rotate(90 227.61 786.661)" fill="black"/>
<rect x="163.16" y="786.661" width="31.4664" height="9.20722" transform="rotate(90 163.16 786.661)" fill="black"/>
<rect x="121.727" y="809.137" width="32.2253" height="8.99041" fill="black"/>
<rect width="446.116" height="15.41" transform="matrix(0.974012 0.226497 -0.236946 0.971523 3.65134 1152.71)" fill="black"/>
<rect width="665.157" height="18.4665" transform="matrix(0.995001 0.0998595 -0.104682 0.994506 393.275 1215.21)" fill="black"/>
<rect x="186.178" y="809.137" width="32.2253" height="8.99041" fill="black"/>
<rect x="255.232" y="809.137" width="32.2253" height="8.99041" fill="black"/>
<rect x="727.209" y="735.612" width="25.5852" height="6.98726" transform="rotate(90 727.209 735.612)" fill="black"/>
<path d="M957.787 735.612L957.787 761.197L950.8 761.197L950.8 735.612L957.787 735.612Z" fill="black"/>
<path d="M1350.82 696.379L1350.82 790.191L1343.83 790.191L1343.83 696.379L1350.82 696.379Z" fill="black"/>
<path d="M1384.01 696.379L1384.01 790.191L1377.02 790.191L1377.02 696.379L1384.01 696.379Z" fill="black"/>
<path d="M1384.01 696.379L1384.01 790.191L1347.33 790.191L1347.33 696.379L1384.01 696.379Z" fill="black"/>
<rect x="664.952" y="606.853" width="98.8945" height="13.8108" transform="rotate(90 664.952 606.853)" fill="black"/>
<rect x="605.106" y="413.559" width="251.731" height="18.4145" transform="rotate(90 605.106 413.559)" fill="black"/>
<rect x="296.665" y="786.661" width="248.595" height="17.9808" transform="rotate(-180 296.665 786.661)" fill="black"/>
<rect x="1525.83" y="1236.18" width="520.208" height="22.476" transform="rotate(-180 1525.83 1236.18)" fill="black"/>
<rect x="1995.4" y="1231.69" width="377.496" height="17.9808" transform="rotate(-180 1995.4 1231.69)" fill="black"/>
<rect x="1636.31" y="1168.75" width="147.316" height="17.9808" transform="rotate(-180 1636.31 1168.75)" fill="black"/>
<rect x="1502.81" y="1159.76" width="53.9425" height="13.8108" transform="rotate(90 1502.81 1159.76)" fill="black"/>
<rect x="1636.31" y="1155.27" width="58.4377" height="18.4145" transform="rotate(90 1636.31 1155.27)" fill="black"/>
<rect x="1995.4" y="786.661" width="431.54" height="18.4145" transform="rotate(90 1995.4 786.661)" fill="black"/>
<rect x="301.268" y="332.645" width="225.577" height="13.4856" transform="rotate(-180 301.268 332.645)" fill="#8C8C8C"/>
<rect x="287.457" y="494.472" width="151.919" height="13.4856" transform="rotate(-180 287.457 494.472)" fill="#8C8C8C"/>
<rect x="287.457" y="638.319" width="151.919" height="13.4856" transform="rotate(-180 287.457 638.319)" fill="#8C8C8C"/>
<rect x="568.278" y="332.645" width="202.559" height="13.4856" transform="rotate(-180 568.278 332.645)" fill="#8C8C8C"/>
<rect x="586.691" y="427.044" width="161.126" height="13.4856" transform="rotate(-180 586.691 427.044)" fill="#8C8C8C"/>
<rect x="586.691" y="786.661" width="161.126" height="13.4856" transform="rotate(-180 586.691 786.661)" fill="#8C8C8C"/>
<rect x="1212.78" y="669.785" width="27.6217" height="8.99041" transform="rotate(-180 1212.78 669.785)" fill="#8C8C8C"/>
<rect x="1327.87" y="669.785" width="41.4325" height="8.99041" transform="rotate(-180 1327.87 669.785)" fill="#8C8C8C"/>
<rect x="425.564" y="575.386" width="157.332" height="13.8108" transform="rotate(-90 425.564 575.386)" fill="#8C8C8C"/>
<rect x="282.854" y="427.044" width="94.3993" height="13.8108" transform="rotate(-90 282.854 427.044)" fill="#8C8C8C"/>
<rect x="1590.28" y="804.642" width="58.4377" height="13.8108" transform="rotate(-90 1590.28 804.642)" fill="#8C8C8C"/>
<rect x="1438.36" y="418.054" width="53.9425" height="9.20723" transform="rotate(-90 1438.36 418.054)" fill="#8C8C8C"/>
<rect x="1659.33" y="768.68" width="239.388" height="17.9808" fill="#8C8C8C"/>
<rect x="1659.33" y="418.054" width="322.253" height="13.4856" fill="#8C8C8C"/>
<rect x="1447.57" y="418.054" width="156.523" height="13.4856" fill="#8C8C8C"/>
<rect x="282.854" y="647.309" width="125.866" height="13.8108" transform="rotate(-90 282.854 647.309)" fill="#8C8C8C"/>
<rect x="282.854" y="768.68" width="89.9041" height="13.8108" transform="rotate(-90 282.854 768.68)" fill="#8C8C8C"/>
<rect x="282.854" y="494.472" width="31.4664" height="13.8108" transform="rotate(-90 282.854 494.472)" fill="#8C8C8C"/>
<rect x="425.564" y="737.214" width="112.38" height="13.8108" transform="rotate(-90 425.564 737.214)" fill="#8C8C8C"/>
<rect x="425.564" y="786.661" width="22.476" height="13.8108" transform="rotate(-90 425.564 786.661)" fill="#8C8C8C"/>
<rect x="609.71" y="332.645" width="13.8108" height="13.4856" transform="rotate(-180 609.71 332.645)" fill="#8C8C8C"/>
<rect x="150.758" y="861.83" width="52.4045" height="163.745" fill="#8C8C8C"/>
<rect x="269.542" y="861.83" width="47.164" height="122.809" fill="#8C8C8C"/>
<rect x="150.758" y="1057.98" width="47.164" height="90.4011" fill="#8C8C8C"/>
<rect x="271.291" y="1011.93" width="47.164" height="136.454" fill="#8C8C8C"/>
<rect x="466.933" y="870.356" width="47.164" height="107.458" fill="#8C8C8C"/>
<rect x="585.717" y="1057.98" width="47.164" height="93.8124" fill="#8C8C8C"/>
<rect x="779.612" y="884.001" width="47.164" height="93.8124" fill="#8C8C8C"/>
<rect x="901.89" y="1057.98" width="47.164" height="90.4011" fill="#8C8C8C"/>
<rect x="585.717" y="870.356" width="47.164" height="155.217" fill="#8C8C8C"/>
<rect x="901.89" y="870.356" width="47.164" height="155.217" fill="#8C8C8C"/>
<rect x="1053.86" y="870.356" width="61.1385" height="119.398" fill="#8C8C8C"/>
<rect x="1111.51" y="819.186" width="117.037" height="180.802" fill="black"/>
<rect x="1544.72" y="899.352" width="36.6831" height="208.093" fill="black"/>
<rect x="1467.86" y="899.352" width="36.6831" height="197.859" fill="#C0C0C0"/>
<rect x="1067.84" y="1051.16" width="241.061" height="56.2875" fill="#8C8C8C"/>
<rect x="1038.14" y="1187.61" width="281.237" height="27.2909" fill="#8C8C8C"/>
<rect x="1370.04" y="1187.61" width="94.328" height="27.2909" fill="#8C8C8C"/>
<rect x="779.612" y="1011.93" width="47.164" height="141.571" fill="#8C8C8C"/>
<rect x="1719.4" y="989.752" width="47.164" height="141.571" fill="#8C8C8C"/>
<rect x="1836.44" y="989.752" width="47.164" height="141.571" fill="#8C8C8C"/>
<rect x="1836.44" y="865.238" width="47.164" height="93.8124" fill="#8C8C8C"/>
<rect x="1719.4" y="865.238" width="47.164" height="93.8124" fill="#8C8C8C"/>
<rect x="466.933" y="1011.93" width="47.164" height="136.454" fill="#8C8C8C"/>
<rect x="57.2771" y="849.594" width="27.6217" height="179.808" fill="#8C8C8C"/>
<rect width="23.6035" height="261.157" transform="matrix(-0.10595 0.994371 -0.994879 -0.10107 980.37 1250.7)" fill="#8C8C8C"/>
<path d="M379.982 1011.98L366.664 965.438H377.414L385.118 997.779H385.505L394.005 965.438H403.209L411.686 997.847H412.095L419.8 965.438H430.55L417.232 1011.98H407.641L398.777 981.552H398.414L389.573 1011.98H379.982ZM475.965 988.711C475.965 993.786 475.003 998.105 473.078 1001.67C471.169 1005.23 468.563 1007.95 465.26 1009.82C461.972 1011.69 458.275 1012.62 454.169 1012.62C450.033 1012.62 446.321 1011.68 443.033 1009.8C439.745 1007.92 437.147 1005.2 435.237 1001.64C433.328 998.082 432.374 993.771 432.374 988.711C432.374 983.635 433.328 979.317 435.237 975.756C437.147 972.195 439.745 969.483 443.033 967.62C446.321 965.741 450.033 964.802 454.169 964.802C458.275 964.802 461.972 965.741 465.26 967.62C468.563 969.483 471.169 972.195 473.078 975.756C475.003 979.317 475.965 983.635 475.965 988.711ZM465.987 988.711C465.987 985.423 465.495 982.65 464.51 980.392C463.541 978.135 462.169 976.423 460.397 975.256C458.624 974.089 456.548 973.506 454.169 973.506C451.791 973.506 449.715 974.089 447.942 975.256C446.169 976.423 444.791 978.135 443.806 980.392C442.836 982.65 442.351 985.423 442.351 988.711C442.351 991.998 442.836 994.771 443.806 997.029C444.791 999.286 446.169 1001 447.942 1002.17C449.715 1003.33 451.791 1003.92 454.169 1003.92C456.548 1003.92 458.624 1003.33 460.397 1002.17C462.169 1001 463.541 999.286 464.51 997.029C465.495 994.771 465.987 991.998 465.987 988.711ZM483.255 1011.98V965.438H501.618C505.133 965.438 508.133 966.067 510.618 967.324C513.118 968.567 515.02 970.332 516.323 972.62C517.641 974.892 518.3 977.567 518.3 980.642C518.3 983.733 517.633 986.392 516.3 988.62C514.967 990.832 513.035 992.529 510.505 993.711C507.989 994.892 504.944 995.483 501.368 995.483H489.073V987.574H499.777C501.656 987.574 503.217 987.317 504.459 986.802C505.701 986.286 506.626 985.514 507.232 984.483C507.853 983.453 508.164 982.173 508.164 980.642C508.164 979.097 507.853 977.794 507.232 976.733C506.626 975.673 505.694 974.87 504.436 974.324C503.194 973.764 501.626 973.483 499.732 973.483H493.095V1011.98H483.255ZM508.391 990.802L519.959 1011.98H509.095L497.777 990.802H508.391ZM525.255 1011.98V965.438H535.095V985.961H535.709L552.459 965.438H564.255L546.982 986.279L564.459 1011.98H552.686L539.936 992.847L535.095 998.756V1011.98H525.255ZM579.22 965.438V1011.98H569.38V965.438H579.22ZM626.249 965.438V1011.98H617.749L597.499 982.688H597.158V1011.98H587.317V965.438H595.953L616.044 994.711H616.453V965.438H626.249ZM665.243 980.483C664.925 979.377 664.478 978.4 663.902 977.552C663.326 976.688 662.622 975.961 661.789 975.37C660.97 974.764 660.031 974.302 658.97 973.983C657.925 973.665 656.766 973.506 655.493 973.506C653.114 973.506 651.023 974.097 649.22 975.279C647.433 976.461 646.039 978.18 645.039 980.438C644.039 982.68 643.539 985.423 643.539 988.665C643.539 991.908 644.031 994.665 645.016 996.938C646.001 999.211 647.395 1000.95 649.198 1002.14C651.001 1003.32 653.13 1003.92 655.584 1003.92C657.811 1003.92 659.713 1003.52 661.289 1002.73C662.88 1001.93 664.092 1000.8 664.925 999.347C665.773 997.892 666.198 996.173 666.198 994.188L668.198 994.483H656.198V987.074H675.675V992.938C675.675 997.029 674.811 1000.54 673.084 1003.48C671.357 1006.41 668.978 1008.67 665.948 1010.26C662.917 1011.83 659.448 1012.62 655.539 1012.62C651.175 1012.62 647.342 1011.66 644.039 1009.73C640.736 1007.79 638.16 1005.04 636.311 1001.48C634.478 997.908 633.561 993.665 633.561 988.756C633.561 984.983 634.107 981.62 635.198 978.665C636.304 975.695 637.849 973.18 639.834 971.12C641.819 969.059 644.13 967.491 646.766 966.415C649.402 965.339 652.258 964.802 655.334 964.802C657.97 964.802 660.425 965.188 662.698 965.961C664.97 966.718 666.986 967.794 668.743 969.188C670.516 970.582 671.963 972.241 673.084 974.165C674.205 976.074 674.925 978.18 675.243 980.483H665.243ZM445.84 1088.98H435.294L451.362 1042.44H464.044L480.09 1088.98H469.544L457.885 1053.07H457.522L445.84 1088.98ZM445.181 1070.69H470.09V1078.37H445.181V1070.69ZM485.692 1088.98V1042.44H504.056C507.571 1042.44 510.571 1043.07 513.056 1044.32C515.556 1045.57 517.457 1047.33 518.76 1049.62C520.078 1051.89 520.737 1054.57 520.737 1057.64C520.737 1060.73 520.071 1063.39 518.737 1065.62C517.404 1067.83 515.472 1069.53 512.942 1070.71C510.427 1071.89 507.381 1072.48 503.806 1072.48H491.51V1064.57H502.215C504.094 1064.57 505.654 1064.32 506.897 1063.8C508.139 1063.29 509.063 1062.51 509.669 1061.48C510.291 1060.45 510.601 1059.17 510.601 1057.64C510.601 1056.1 510.291 1054.79 509.669 1053.73C509.063 1052.67 508.131 1051.87 506.874 1051.32C505.631 1050.76 504.063 1050.48 502.169 1050.48H495.533V1088.98H485.692ZM510.828 1067.8L522.397 1088.98H511.533L500.215 1067.8H510.828ZM527.692 1088.98V1042.44H559.056V1050.55H537.533V1061.64H557.442V1069.76H537.533V1080.87H559.147V1088.98H527.692ZM574.902 1088.98H564.357L580.425 1042.44H593.107L609.152 1088.98H598.607L586.948 1053.07H586.584L574.902 1088.98ZM574.243 1070.69H599.152V1078.37H574.243V1070.69Z" fill="black"/>
<path d="M1679.24 993.507L1669.25 958.598H1677.31L1683.09 982.854H1683.38L1689.76 958.598H1696.66L1703.02 982.905H1703.32L1709.1 958.598H1717.16L1707.18 993.507H1699.98L1693.33 970.683H1693.06L1686.43 993.507H1679.24ZM1751.23 976.053C1751.23 979.86 1750.5 983.098 1749.06 985.769C1747.63 988.439 1745.67 990.479 1743.2 991.888C1740.73 993.286 1737.96 993.985 1734.88 993.985C1731.78 993.985 1728.99 993.28 1726.53 991.871C1724.06 990.462 1722.11 988.422 1720.68 985.752C1719.25 983.081 1718.53 979.848 1718.53 976.053C1718.53 972.246 1719.25 969.007 1720.68 966.337C1722.11 963.666 1724.06 961.632 1726.53 960.235C1728.99 958.826 1731.78 958.121 1734.88 958.121C1737.96 958.121 1740.73 958.826 1743.2 960.235C1745.67 961.632 1747.63 963.666 1749.06 966.337C1750.5 969.007 1751.23 972.246 1751.23 976.053ZM1743.74 976.053C1743.74 973.587 1743.37 971.507 1742.63 969.814C1741.91 968.121 1740.88 966.837 1739.55 965.962C1738.22 965.087 1736.66 964.649 1734.88 964.649C1733.09 964.649 1731.54 965.087 1730.21 965.962C1728.88 966.837 1727.84 968.121 1727.11 969.814C1726.38 971.507 1726.02 973.587 1726.02 976.053C1726.02 978.519 1726.38 980.598 1727.11 982.291C1727.84 983.985 1728.88 985.269 1730.21 986.144C1731.54 987.019 1733.09 987.456 1734.88 987.456C1736.66 987.456 1738.22 987.019 1739.55 986.144C1740.88 985.269 1741.91 983.985 1742.63 982.291C1743.37 980.598 1743.74 978.519 1743.74 976.053ZM1756.69 993.507V958.598H1770.47C1773.1 958.598 1775.35 959.07 1777.22 960.013C1779.09 960.945 1780.52 962.269 1781.49 963.985C1782.48 965.689 1782.98 967.695 1782.98 970.002C1782.98 972.32 1782.48 974.314 1781.48 975.985C1780.48 977.644 1779.03 978.916 1777.13 979.803C1775.24 980.689 1772.96 981.132 1770.28 981.132H1761.06V975.201H1769.08C1770.49 975.201 1771.66 975.007 1772.6 974.621C1773.53 974.235 1774.22 973.655 1774.68 972.882C1775.14 972.11 1775.37 971.149 1775.37 970.002C1775.37 968.843 1775.14 967.865 1774.68 967.07C1774.22 966.274 1773.52 965.672 1772.58 965.263C1771.65 964.843 1770.47 964.632 1769.05 964.632H1764.07V993.507H1756.69ZM1775.54 977.621L1784.22 993.507H1776.07L1767.58 977.621H1775.54ZM1788.19 993.507V958.598H1795.57V973.99H1796.03L1808.6 958.598H1817.44L1804.49 974.229L1817.6 993.507H1808.77L1799.2 979.155L1795.57 983.587V993.507H1788.19ZM1828.67 958.598V993.507H1821.29V958.598H1828.67ZM1863.94 958.598V993.507H1857.56L1842.38 971.536H1842.12V993.507H1834.74V958.598H1841.22L1856.29 980.553H1856.59V958.598H1863.94ZM1893.18 969.882C1892.95 969.053 1892.61 968.32 1892.18 967.683C1891.75 967.036 1891.22 966.49 1890.59 966.047C1889.98 965.593 1889.28 965.246 1888.48 965.007C1887.7 964.769 1886.83 964.649 1885.87 964.649C1884.09 964.649 1882.52 965.093 1881.17 965.979C1879.83 966.865 1878.78 968.155 1878.03 969.848C1877.28 971.53 1876.91 973.587 1876.91 976.019C1876.91 978.451 1877.28 980.519 1878.01 982.223C1878.75 983.928 1879.8 985.229 1881.15 986.127C1882.5 987.013 1884.1 987.456 1885.94 987.456C1887.61 987.456 1889.04 987.161 1890.22 986.57C1891.41 985.968 1892.32 985.121 1892.95 984.03C1893.58 982.939 1893.9 981.649 1893.9 980.161L1895.4 980.382H1886.4V974.826H1901.01V979.223C1901.01 982.291 1900.36 984.928 1899.06 987.132C1897.77 989.326 1895.99 991.019 1893.71 992.212C1891.44 993.394 1888.84 993.985 1885.91 993.985C1882.63 993.985 1879.76 993.263 1877.28 991.82C1874.8 990.365 1872.87 988.303 1871.49 985.632C1870.11 982.951 1869.42 979.769 1869.42 976.087C1869.42 973.257 1869.83 970.735 1870.65 968.519C1871.48 966.291 1872.64 964.405 1874.13 962.86C1875.62 961.314 1877.35 960.138 1879.33 959.331C1881.3 958.524 1883.45 958.121 1885.75 958.121C1887.73 958.121 1889.57 958.411 1891.28 958.99C1892.98 959.558 1894.49 960.365 1895.81 961.411C1897.14 962.456 1898.22 963.701 1899.06 965.144C1899.91 966.576 1900.45 968.155 1900.68 969.882H1893.18ZM1728.63 1051.51H1720.72L1732.77 1016.6H1742.29L1754.32 1051.51H1746.41L1737.67 1024.58H1737.39L1728.63 1051.51ZM1728.14 1037.79H1746.82V1043.55H1728.14V1037.79ZM1758.52 1051.51V1016.6H1772.29C1774.93 1016.6 1777.18 1017.07 1779.04 1018.01C1780.92 1018.94 1782.34 1020.27 1783.32 1021.98C1784.31 1023.69 1784.8 1025.69 1784.8 1028C1784.8 1030.32 1784.3 1032.31 1783.3 1033.98C1782.3 1035.64 1780.86 1036.92 1778.96 1037.8C1777.07 1038.69 1774.79 1039.13 1772.11 1039.13H1762.88V1033.2H1770.91C1772.32 1033.2 1773.49 1033.01 1774.42 1032.62C1775.36 1032.23 1776.05 1031.66 1776.5 1030.88C1776.97 1030.11 1777.2 1029.15 1777.2 1028C1777.2 1026.84 1776.97 1025.87 1776.5 1025.07C1776.05 1024.27 1775.35 1023.67 1774.41 1023.26C1773.48 1022.84 1772.3 1022.63 1770.88 1022.63H1765.9V1051.51H1758.52ZM1777.37 1035.62L1786.05 1051.51H1777.9L1769.41 1035.62H1777.37ZM1790.02 1051.51V1016.6H1813.54V1022.68H1797.4V1031H1812.33V1037.09H1797.4V1045.42H1813.61V1051.51H1790.02ZM1825.43 1051.51H1817.52L1829.57 1016.6H1839.08L1851.12 1051.51H1843.21L1834.46 1024.58H1834.19L1825.43 1051.51ZM1824.93 1037.79H1843.62V1043.55H1824.93V1037.79Z" fill="black"/>
<path d="M1273.02 883.127V854.036H1284.5C1286.7 854.036 1288.57 854.429 1290.13 855.215C1291.69 855.992 1292.88 857.095 1293.69 858.525C1294.52 859.945 1294.93 861.617 1294.93 863.539C1294.93 865.471 1294.51 867.133 1293.68 868.525C1292.84 869.907 1291.64 870.968 1290.06 871.707C1288.48 872.445 1286.58 872.815 1284.35 872.815H1276.66V867.871H1283.35C1284.53 867.871 1285.5 867.71 1286.28 867.388C1287.05 867.067 1287.63 866.584 1288.01 865.94C1288.4 865.296 1288.59 864.496 1288.59 863.539C1288.59 862.573 1288.4 861.759 1288.01 861.096C1287.63 860.433 1287.05 859.931 1286.26 859.59C1285.49 859.24 1284.51 859.065 1283.32 859.065H1279.17V883.127H1273.02ZM1288.73 869.888L1295.96 883.127H1289.17L1282.1 869.888H1288.73ZM1299.27 883.127V854.036H1318.88V859.107H1305.42V866.039H1317.87V871.11H1305.42V878.056H1318.93V883.127H1299.27ZM1349.43 864.221H1343.21C1343.1 863.416 1342.87 862.701 1342.52 862.076C1342.17 861.442 1341.72 860.902 1341.17 860.457C1340.62 860.012 1339.98 859.671 1339.26 859.434C1338.55 859.197 1337.78 859.079 1336.95 859.079C1335.44 859.079 1334.13 859.453 1333.01 860.201C1331.9 860.94 1331.03 862.019 1330.41 863.44C1329.8 864.851 1329.49 866.565 1329.49 868.582C1329.49 870.656 1329.8 872.398 1330.41 873.809C1331.04 875.22 1331.91 876.285 1333.03 877.005C1334.15 877.725 1335.44 878.085 1336.91 878.085C1337.73 878.085 1338.49 877.976 1339.19 877.758C1339.9 877.54 1340.53 877.223 1341.08 876.806C1341.63 876.38 1342.09 875.864 1342.45 875.258C1342.81 874.652 1343.07 873.96 1343.21 873.184L1349.43 873.212C1349.27 874.548 1348.87 875.835 1348.23 877.076C1347.59 878.307 1346.74 879.41 1345.66 880.386C1344.59 881.352 1343.31 882.119 1341.82 882.687C1340.34 883.246 1338.67 883.525 1336.81 883.525C1334.21 883.525 1331.89 882.938 1329.85 881.763C1327.81 880.589 1326.2 878.889 1325.02 876.664C1323.84 874.439 1323.26 871.745 1323.26 868.582C1323.26 865.409 1323.85 862.71 1325.04 860.485C1326.24 858.26 1327.86 856.565 1329.9 855.4C1331.95 854.226 1334.25 853.638 1336.81 853.638C1338.49 853.638 1340.05 853.875 1341.49 854.349C1342.94 854.822 1344.23 855.513 1345.34 856.423C1346.46 857.322 1347.37 858.425 1348.07 859.732C1348.78 861.039 1349.24 862.535 1349.43 864.221ZM1353.84 883.127V854.036H1373.45V859.107H1360V866.039H1372.44V871.11H1360V878.056H1373.5V883.127H1353.84ZM1378.34 883.127V854.036H1389.81C1392.02 854.036 1393.9 854.458 1395.45 855.3C1397.01 856.134 1398.19 857.294 1399 858.781C1399.83 860.258 1400.24 861.962 1400.24 863.894C1400.24 865.826 1399.82 867.531 1398.99 869.008C1398.16 870.485 1396.95 871.636 1395.37 872.46C1393.8 873.283 1391.89 873.695 1389.66 873.695H1382.34V868.766H1388.66C1389.85 868.766 1390.82 868.563 1391.59 868.156C1392.37 867.739 1392.94 867.166 1393.32 866.437C1393.71 865.698 1393.91 864.851 1393.91 863.894C1393.91 862.928 1393.71 862.085 1393.32 861.366C1392.94 860.637 1392.37 860.073 1391.59 859.675C1390.81 859.268 1389.83 859.065 1388.64 859.065H1384.49V883.127H1378.34ZM1403.13 859.107V854.036H1427.02V859.107H1418.11V883.127H1412.03V859.107H1403.13ZM1437.1 854.036V883.127H1430.95V854.036H1437.1ZM1468.9 868.582C1468.9 871.754 1468.3 874.453 1467.09 876.678C1465.9 878.904 1464.27 880.603 1462.21 881.778C1460.15 882.942 1457.84 883.525 1455.28 883.525C1452.69 883.525 1450.37 882.938 1448.32 881.763C1446.26 880.589 1444.64 878.889 1443.44 876.664C1442.25 874.439 1441.65 871.745 1441.65 868.582C1441.65 865.409 1442.25 862.71 1443.44 860.485C1444.64 858.26 1446.26 856.565 1448.32 855.4C1450.37 854.226 1452.69 853.638 1455.28 853.638C1457.84 853.638 1460.15 854.226 1462.21 855.4C1464.27 856.565 1465.9 858.26 1467.09 860.485C1468.3 862.71 1468.9 865.409 1468.9 868.582ZM1462.66 868.582C1462.66 866.527 1462.35 864.794 1461.74 863.383C1461.13 861.972 1460.28 860.902 1459.17 860.173C1458.06 859.443 1456.76 859.079 1455.28 859.079C1453.79 859.079 1452.49 859.443 1451.38 860.173C1450.28 860.902 1449.41 861.972 1448.8 863.383C1448.19 864.794 1447.89 866.527 1447.89 868.582C1447.89 870.637 1448.19 872.37 1448.8 873.781C1449.41 875.192 1450.28 876.262 1451.38 876.991C1452.49 877.72 1453.79 878.085 1455.28 878.085C1456.76 878.085 1458.06 877.72 1459.17 876.991C1460.28 876.262 1461.13 875.192 1461.74 873.781C1462.35 872.37 1462.66 870.637 1462.66 868.582ZM1497.79 854.036V883.127H1492.47L1479.82 864.817H1479.6V883.127H1473.45V854.036H1478.85L1491.41 872.332H1491.66V854.036H1497.79ZM1337.67 931.127H1331.08L1341.12 902.036H1349.05L1359.07 931.127H1352.48L1345.2 908.684H1344.97L1337.67 931.127ZM1337.26 919.692H1352.82V924.494H1337.26V919.692ZM1362.58 931.127V902.036H1374.05C1376.25 902.036 1378.12 902.429 1379.68 903.215C1381.24 903.992 1382.43 905.095 1383.24 906.525C1384.07 907.945 1384.48 909.617 1384.48 911.539C1384.48 913.471 1384.06 915.133 1383.23 916.525C1382.4 917.907 1381.19 918.968 1379.61 919.707C1378.03 920.445 1376.13 920.815 1373.9 920.815H1366.21V915.871H1372.9C1374.08 915.871 1375.05 915.71 1375.83 915.388C1376.6 915.067 1377.18 914.584 1377.56 913.94C1377.95 913.296 1378.14 912.496 1378.14 911.539C1378.14 910.573 1377.95 909.759 1377.56 909.096C1377.18 908.433 1376.6 907.931 1375.81 907.59C1375.04 907.24 1374.06 907.065 1372.87 907.065H1368.73V931.127H1362.58ZM1378.29 917.888L1385.52 931.127H1378.73L1371.65 917.888H1378.29ZM1388.83 931.127V902.036H1408.43V907.107H1394.98V914.039H1407.42V919.11H1394.98V926.056H1408.48V931.127H1388.83ZM1418.33 931.127H1411.74L1421.78 902.036H1429.71L1439.74 931.127H1433.15L1425.86 908.684H1425.63L1418.33 931.127ZM1417.92 919.692H1433.49V924.494H1417.92V919.692Z" fill="black"/>
</svg>
